<?xml version="1.0" encoding="utf-8"?>
<!-- Generator: Adobe Illustrator 15.0.2, SVG Export Plug-In . SVG Version: 6.00 Build 0)  -->
<!DOCTYPE svg PUBLIC "-//W3C//DTD SVG 1.1//EN" "http://www.w3.org/Graphics/SVG/1.1/DTD/svg11.dtd">
<svg version="1.1" xmlns="http://www.w3.org/2000/svg" xmlns:xlink="http://www.w3.org/1999/xlink" x="0px" y="0px" width="160px"
	 height="40px" viewBox="0 0 160 40" enable-background="new 0 0 160 40" xml:space="preserve">
<g id="Layer_1">
	<rect x="16" y="11" fill="#FFFFFF" width="10" height="18"/>
	<path fill="#3B5998" d="M26.896,9H9.104C8.494,9,8,9.494,8,10.104v17.793C8,28.506,8.494,29,9.104,29h9.579v-7.745h-2.607v-3.018
		h2.607v-2.229c0-2.583,1.577-3.987,3.882-3.987c1.104,0,2.053,0.08,2.329,0.117v2.7h-1.6c-1.25,0-1.494,0.595-1.494,1.47v1.925
		h2.988l-0.388,3.02h-2.6V29h5.097C27.506,29,28,28.506,28,27.896V10.104C28,9.494,27.506,9,26.896,9"/>
</g>
<g id="Layer_2">
	<path fill="#FFFFFF" d="M59.604,25.59H60.8c0,0,0.36-0.04,0.545-0.237c0.171-0.184,0.167-0.525,0.167-0.525
		s-0.025-1.604,0.72-1.841c0.734-0.233,1.675,1.55,2.675,2.235c0.755,0.52,1.329,0.407,1.329,0.407l2.671-0.037
		c0,0,1.396-0.088,0.733-1.186c-0.054-0.09-0.385-0.812-1.985-2.297c-1.675-1.555-1.453-1.304,0.565-3.993
		c1.229-1.637,1.72-2.637,1.566-3.065c-0.146-0.407-1.05-0.3-1.05-0.3l-3.008,0.019c0,0-0.225-0.031-0.387,0.067
		c-0.163,0.097-0.267,0.323-0.267,0.323s-0.475,1.266-1.112,2.345c-1.337,2.275-1.875,2.395-2.092,2.253
		c-0.509-0.33-0.381-1.322-0.381-2.028c0-2.204,0.333-3.123-0.65-3.36c-0.329-0.079-0.569-0.131-1.405-0.14
		c-1.075-0.012-1.981,0.004-2.495,0.255c-0.343,0.167-0.606,0.541-0.446,0.562c0.2,0.025,0.65,0.121,0.887,0.446
		c0.31,0.419,0.3,1.36,0.3,1.36s0.175,2.594-0.413,2.917c-0.408,0.221-0.962-0.23-2.158-2.293c-0.612-1.056-1.072-2.225-1.072-2.225
		s-0.09-0.217-0.25-0.335c-0.191-0.141-0.46-0.188-0.46-0.188l-2.859,0.021c0,0-0.427,0.012-0.585,0.2
		c-0.14,0.165-0.012,0.508-0.012,0.508s2.238,5.234,4.772,7.872c2.323,2.419,4.96,2.261,4.96,2.261V25.59z"/>
	<path fill="#FFFFFF" d="M111.119,13.612c-0.738,0.325-1.525,0.546-2.356,0.646c0.847-0.509,1.497-1.312,1.804-2.27
		c-0.793,0.469-1.672,0.81-2.605,0.994c-0.748-0.797-1.812-1.295-2.996-1.295c-2.265,0-4.102,1.835-4.102,4.1
		c0,0.322,0.037,0.637,0.105,0.938c-3.41-0.173-6.434-1.805-8.457-4.285c-0.355,0.604-0.555,1.309-0.555,2.062
		c0,1.425,0.725,2.679,1.824,3.415c-0.672-0.021-1.306-0.206-1.858-0.513v0.05c0,1.987,1.412,3.647,3.291,4.024
		c-0.345,0.093-0.707,0.143-1.081,0.143c-0.263,0-0.52-0.025-0.771-0.072c0.522,1.63,2.037,2.816,3.834,2.85
		c-1.405,1.101-3.175,1.755-5.097,1.755c-0.331,0-0.657-0.019-0.979-0.056c1.816,1.162,3.973,1.842,6.29,1.842
		c7.547,0,11.676-6.25,11.676-11.672c0-0.179-0.006-0.355-0.014-0.531C109.873,15.159,110.57,14.438,111.119,13.612L111.119,13.612z
		"/>
	<path fill="#FFFFFF" d="M130.084,19.191c0-1.617,0.2-3.237,0.2-3.237s0.194-1.375,0.795-1.983c0.76-0.797,1.76-0.771,2.205-0.855
		c1.6-0.155,6.8-0.2,6.8-0.2s4.203,0.005,7,0.208c0.393,0.047,1.245,0.05,2.005,0.848c0.601,0.607,0.795,1.984,0.795,1.984
		s0.2,1.618,0.2,3.237v1.573c0,1.621-0.2,3.238-0.2,3.238s-0.194,1.377-0.795,1.984c-0.76,0.797-1.612,0.801-2.005,0.848
		c-2.797,0.203-7,0.207-7,0.207s-5.2-0.045-6.8-0.199c-0.445-0.084-1.445-0.059-2.205-0.855c-0.601-0.609-0.795-1.984-0.795-1.984
		s-0.2-1.617-0.2-3.236V19.191L130.084,19.191z M138.02,22.604v-5.62l5.403,2.818l-5.4,2.801H138.02L138.02,22.604z"/>
	<polygon fill="#CD201F" points="138.02,22.604 138.02,16.985 143.423,19.803 138.022,22.604 138.021,22.604 	"/>
</g>
</svg>
